<?xml version="1.0" encoding="utf-8"?>
<!-- Generator: Adobe Illustrator 25.3.1, SVG Export Plug-In . SVG Version: 6.00 Build 0)  -->
<svg version="1.1" id="Layer_1" xmlns="http://www.w3.org/2000/svg" xmlns:xlink="http://www.w3.org/1999/xlink" x="0px" y="0px"
	 viewBox="0 0 1245.96 401.87" style="enable-background:new 0 0 1245.96 401.87;" xml:space="preserve">
<style type="text/css">
	.st0{fill:#FFFFFF;}
	.st1{fill:#E475AE;}
	.st2{fill:#572412;}
	.st3{fill:#ED70AB;}
	.st4{fill:#D8A975;}
	.st5{fill:#EBC18A;}
	.st6{fill:#F5A5C6;}
	.st7{fill:#532512;}
	.st8{fill:#BB4983;}
	.st9{fill:#F097B8;}
</style>
<path class="st0" d="M726.01,191.49c0-31.35,0-62.7,0.01-94.04c0-3.03-0.07-6.06,0.61-9.07c2-8.78,7.17-13.54,16.12-14.58
	c1.74-0.2,3.51-0.19,5.27-0.19c23.66-0.01,47.33-0.01,70.99,0c2.71,0,5.41,0.04,8.1,0.69c8.24,1.99,13.03,7.14,14.1,15.51
	c0.26,2.06,0.34,4.15,0.34,6.22c0.03,16.79,0.02,33.59,0.01,50.38c0,0.8,0.02,1.6-0.04,2.4c-0.07,0.89-0.49,1.49-1.48,1.52
	c-0.32,0.01-0.64,0.03-0.96,0.03c-9.91,0-19.83,0-29.74,0c-0.48,0-0.96-0.03-1.43-0.08c-0.73-0.08-1.14-0.54-1.18-1.24
	c-0.06-1.28-0.08-2.55-0.09-3.83c-0.01-12,0-23.99,0-35.99c0-1.28,0-2.56-0.03-3.84c-0.03-0.95-0.59-1.43-1.51-1.5
	c-0.64-0.05-1.28-0.07-1.91-0.07c-12.95,0-25.9,0-38.85,0c-0.64,0-1.29-0.03-1.91,0.1c-0.67,0.13-1.13,0.65-1.18,1.33
	c-0.09,1.11-0.07,2.24-0.07,3.36c0,55.18,0,110.36-0.01,165.54c0,5.12-0.09,4.75,4.63,4.75c12.15,0,24.3,0,36.45,0
	c0.96,0,1.92-0.01,2.87-0.06c0.94-0.05,1.44-0.62,1.47-1.52c0.05-1.28,0.04-2.56,0.04-3.84c0-12.96,0-25.91,0-38.87
	c0-1.28,0-2.56,0.06-3.84c0.04-0.92,0.6-1.41,1.53-1.45c0.32-0.02,0.64-0.04,0.96-0.04c9.91,0,19.83,0,29.74,0
	c0.32,0,0.64,0.02,0.96,0.03c0.93,0.02,1.52,0.5,1.59,1.4c0.09,1.11,0.08,2.23,0.08,3.35c0,17.27,0.03,34.55-0.02,51.82
	c-0.01,2.87-0.05,5.8-0.6,8.59c-1.63,8.26-7.31,13.27-15.88,14.28c-1.9,0.22-3.83,0.25-5.75,0.25c-23.82,0.02-47.65,0.01-71.47,0.01
	c-3.2,0-6.37-0.11-9.48-1.08c-5.64-1.75-9.29-5.47-11.08-11.01c-0.79-2.43-1.25-4.96-1.24-7.55c0.01-3.36-0.03-6.72-0.03-10.08
	C726.01,250.02,726.01,220.76,726.01,191.49z"/>
<path class="st0" d="M1025.2,212.71c0.7-1.39,1.42-2.76,2.08-4.17c7.34-15.61,14.66-31.23,21.99-46.84
	c0.47-1.01,0.93-2.03,1.39-3.05c0.52-1.15,1.42-1.56,2.67-1.55c10.71,0.03,21.42,0.02,32.13,0.04c1.29,0,1.73,0.68,1.2,1.82
	c-0.6,1.31-1.27,2.58-1.92,3.86c-10.04,19.8-20.09,39.6-30.13,59.4c-0.58,1.14-1.1,2.31-1.7,3.44c-0.41,0.77-0.43,1.47-0.03,2.26
	c0.65,1.28,1.21,2.61,1.83,3.91c11.3,23.98,22.61,47.96,33.88,71.96c0.73,1.54,1.81,3,1.84,5.01c-0.85,0.08-1.62,0.21-2.39,0.21
	c-10.23,0.01-20.47-0.07-30.7,0.07c-2.34,0.03-3.35-0.89-4.21-2.9c-6.92-16.15-13.94-32.25-20.93-48.37
	c-2.28-5.24-4.56-10.48-6.81-15.65c-1.21,0.05-1.01,0.82-1.03,1.38c-0.05,1.28-0.03,2.56-0.03,3.84c0,18.07,0,36.14,0,54.22
	c0,0.8,0,1.6,0,2.4c-0.03,5.46,0.55,5.03-5.26,5.03c-7.99,0.01-15.99,0-23.98,0c-0.96,0-1.92,0.02-2.88-0.01
	c-2.05-0.07-2.24-0.24-2.3-2.13c-0.04-1.28-0.01-2.56-0.01-3.84c0-74.53-0.01-149.05,0.01-223.58c0-6.77-0.9-5.81,5.79-5.85
	c7.99-0.05,15.99-0.02,23.98-0.01c1.12,0,2.24,0.02,3.35,0.1c0.7,0.05,1.18,0.5,1.21,1.22c0.07,1.44,0.09,2.88,0.09,4.31
	c0,42.7,0,85.4,0,128.1c0,1.75,0,3.5,0,5.25C1024.62,212.62,1024.91,212.67,1025.2,212.71z"/>
<path class="st0" d="M45.82,232.71c0-3.68-0.09-7.36,0.02-11.03c0.29-9.64-1.13-19.13-2.45-28.63c-0.86-6.18-1.52-12.37-1.48-18.63
	c0.07-11.03,0.09-22.07,0.11-33.1c0-2.08,0-4.16-0.15-6.23c-0.53-7.1,1.32-13.61,4.81-19.72c2.48-4.34,5.68-8.1,9.34-11.5
	c5.42-5.03,11.5-9.14,17.92-12.77c5.71-3.22,11.67-5.94,17.65-8.6c35.89-15.96,71.81-31.85,107.69-47.84
	c9.14-4.07,18.64-5.37,28.53-4.61c11.46,0.88,22.22,4.21,32.67,8.81c38.88,17.1,77.74,34.23,116.68,51.18
	c13.54,5.89,21.98,16.04,26.42,29.84c2.18,6.78,2.68,13.78,2.47,20.85c-0.17,5.91-0.45,11.83-0.44,17.74
	c0.03,13.33-1.56,26.47-4.28,39.5c-1.11,5.34-1.67,10.71-1.61,16.18c0.13,12.47,0.1,24.95,0.07,37.42
	c-0.01,2.55-0.26,5.11-0.54,7.64c-0.51,4.71-2.8,8.47-6.54,11.29c-3.06,2.31-6.19,4.54-9.43,6.58c-10.95,6.9-21.9,13.8-32.96,20.52
	c-29.21,17.76-58.48,35.44-87.73,53.14c-3.01,1.82-6.08,3.52-9.15,5.23c-5.17,2.88-10.19,5.98-14.92,9.56
	c-1.78,1.34-3.66,2.61-5.65,3.59c-5.61,2.77-11.37,3.04-17.11,0.38c-2.46-1.14-4.87-2.41-7.19-3.81
	c-33.53-20.19-67.07-40.37-100.56-60.63c-14.63-8.85-29.15-17.87-43.69-26.85c-2.85-1.76-5.56-3.76-8.43-5.5
	c-6.94-4.21-10.05-10.42-10.03-18.42c0.02-5.12-0.09-10.23-0.13-15.35c-0.02-2.08,0-4.16,0-6.24
	C45.75,232.71,45.78,232.71,45.82,232.71z"/>
<path class="st1" d="M647.95,240.63c0-15.67,0-31.35,0-47.02c0-1.12,0.02-2.24-0.01-3.36c-0.08-3.62-0.15-3.7-3.83-3.75
	c-3.36-0.04-6.72,0.02-10.07-0.05c-1.78-0.04-2.18-0.5-2.24-2.37c-0.06-2.08-0.03-4.16-0.03-6.24c0-6.08-0.02-12.15,0.03-18.23
	c0.02-2.12,0.38-2.45,2.57-2.48c3.68-0.06,7.35,0.01,11.03-0.05c2.11-0.03,2.4-0.37,2.51-2.59c0.06-1.12,0.03-2.24,0.03-3.36
	c0-9.76,0-19.51,0-29.27c0-1.12-0.03-2.24,0.02-3.36c0.1-2.19,0.43-2.55,2.48-2.62c1.6-0.06,3.2-0.03,4.8-0.03
	c7.19,0,14.39,0,21.58,0c1.12,0,2.24,0.01,3.36,0.03c1.13,0.02,1.81,0.55,1.85,1.72c0.05,1.28,0.05,2.56,0.05,3.84
	c0,10.08,0,20.15,0.01,30.23c0,1.28,0.02,2.56,0.09,3.83c0.05,0.91,0.62,1.47,1.52,1.52c1.27,0.08,2.55,0.08,3.83,0.08
	c4.64,0.01,9.27-0.03,13.91,0.02c2.48,0.03,2.65,0.23,2.71,2.82c0.05,2.56,0.02,5.12,0.02,7.68c0,5.44,0.02,10.88-0.03,16.31
	c-0.02,2.14-0.36,2.47-2.59,2.51c-4.48,0.07-8.95,0.03-13.43,0.05c-1.28,0-2.56-0.02-3.84,0.05c-1.54,0.09-2.05,0.57-2.14,1.99
	c-0.07,1.12-0.05,2.24-0.05,3.36c0,27.51,0,55.02,0,82.53c0,5.78-0.39,5.4,5.49,5.4c4.8,0,9.59-0.03,14.39,0.02
	c2.9,0.03,3.06,0.18,3.08,2.93c0.05,5.6,0.02,11.2,0.02,16.79c0,2.4,0.03,4.8-0.04,7.2c-0.05,1.87-0.36,2.12-2.32,2.23
	c-0.8,0.04-1.6,0.03-2.4,0.03c-10.87,0-21.74,0.01-32.62-0.01c-2.71-0.01-5.41-0.06-8.08-0.81c-6.59-1.85-10.24-6.26-11.25-12.88
	c-0.38-2.51-0.4-5.1-0.41-7.65C647.93,271.97,647.95,256.3,647.95,240.63z"/>
<path class="st1" d="M580.28,232.99c0-23.49,0-46.99,0-70.48c0-5.86-0.47-5.39,5.44-5.4c7.67-0.01,15.34,0,23.01,0
	c0.96,0,1.92-0.02,2.88,0.02c2.15,0.09,2.34,0.29,2.43,2.63c0.04,1.28,0.02,2.56,0.02,3.84c0,22.21,0,44.43,0,66.64
	c0,24.45,0.01,48.9,0,73.36c0,5.89,0.44,5.39-5.44,5.4c-7.67,0.02-15.34,0.01-23.01,0c-1.12,0-2.24,0.02-3.35-0.05
	c-1.46-0.09-1.87-0.54-1.94-2.13c-0.06-1.44-0.03-2.88-0.03-4.31C580.28,279.33,580.28,256.16,580.28,232.99z"/>
<path class="st1" d="M614.51,117.72c0,4.96,0.03,9.91-0.02,14.87c-0.02,2.16-0.42,2.6-2.48,2.6c-9.91,0.03-19.82,0.02-29.73-0.02
	c-1.82-0.01-2.16-0.38-2.17-2.36c-0.03-10.23-0.04-20.47,0-30.7c0.01-2.02,0.44-2.39,2.66-2.4c9.59-0.03,19.18-0.02,28.77-0.01
	c0.48,0,0.96,0.02,1.43,0.09c0.91,0.14,1.42,0.76,1.45,1.62c0.08,2.56,0.08,5.11,0.09,7.67c0.01,2.88,0,5.76,0,8.63
	C614.51,117.72,614.51,117.72,614.51,117.72z"/>
<path class="st1" d="M553.49,217.12c0-1.75-0.06-3.54-0.39-5.25c-1.27-6.57-4.44-11.93-10.24-15.54c-4.75-2.96-9.49-5.93-14.21-8.93
	c-1.47-0.93-1.5-1.55-0.1-2.44c4.72-3.01,9.45-5.99,14.2-8.94c4.45-2.76,7.08-6.85,8.53-11.75c0.77-2.61,1.11-5.3,1.11-8.05
	c-0.02-20.47-0.02-40.95,0-61.42c0-2.74-0.32-5.43-1.05-8.06c-1.76-6.38-5.79-10.49-12.24-12.25c-2.98-0.81-5.99-0.89-9.03-0.89
	c-28.62,0-57.24-0.01-85.87,0.01c-6.63,0-5.98-0.68-5.98,5.82c-0.01,37.27-0.01,74.54-0.01,111.81s0,74.54,0,111.81
	c0,1.44,0.02,2.88,0.07,4.32c0.03,0.92,0.56,1.47,1.47,1.56c0.95,0.09,1.91,0.1,2.87,0.1c29.74,0,59.48,0,89.22-0.01
	c1.6,0,3.2-0.04,4.79-0.21c9.48-1,15.46-6.87,16.62-16.33c0.18-1.42,0.23-2.87,0.23-4.31C553.52,264.47,553.52,240.8,553.49,217.12z
	 M473.49,137.44c0-9.58,0-19.16,0-28.75c0-1.28,0.02-2.55,0.09-3.83c0.05-0.9,0.58-1.45,1.5-1.51c0.95-0.06,1.91-0.08,2.87-0.08
	c11.65-0.01,23.31,0,34.96,0c0.96,0,1.92-0.01,2.87,0.06c0.88,0.06,1.5,0.54,1.56,1.47c0.08,1.11,0.11,2.23,0.11,3.35
	c0.01,15.97,0,31.94,0,47.91c0,0.8-0.03,1.6-0.02,2.4c0.02,1.22-0.52,2.11-1.51,2.81c-4.69,3.32-9.37,6.65-14.05,9.99
	c-1.08,0.77-2.24,1.12-3.58,1.11c-7.5-0.04-15.01,0-22.51-0.05c-1.8-0.01-2.18-0.46-2.27-2.31c-0.06-1.12-0.03-2.24-0.03-3.35
	C473.49,156.92,473.49,147.18,473.49,137.44z M518.24,214.84c-0.06,0.96-0.01,1.92-0.01,2.88c0,18.55,0,37.1,0,55.65
	c0,1.44-0.02,2.88-0.1,4.31c-0.05,0.89-0.55,1.48-1.48,1.55c-0.95,0.07-1.91,0.11-2.87,0.11c-11.99,0.01-23.98,0.01-35.97,0
	c-0.8,0-1.6-0.02-2.4-0.05c-1.1-0.04-1.82-0.53-1.86-1.71c-0.04-1.28-0.06-2.56-0.06-3.84c0-11.35,0-22.71,0-34.06
	c0-10.87,0-21.75,0-32.62c0-1.12-0.02-2.24,0.02-3.36c0.09-2.45,0.28-2.7,2.84-2.71c7.51-0.04,15.03-0.01,22.54-0.03
	c1.48,0,2.8,0.33,4.05,1.18c4.37,2.95,8.76,5.88,13.2,8.73C517.66,211.85,518.35,213.07,518.24,214.84z"/>
<path class="st2" d="M58.07,230.82c-0.15-7.83,0.15-15.68-0.77-23.48c-0.71-6.03-1.39-12.07-2.27-18.07
	c-0.7-4.77-0.95-9.54-0.95-14.34c0.01-11.67,0.07-23.35,0.09-35.02c0-1.6,0.09-3.22-0.17-4.78c-0.67-4.13,0.31-7.93,2-11.62
	c1.96-4.29,4.93-7.82,8.38-10.98c4.26-3.91,9-7.16,13.98-10.06c5.53-3.22,11.32-5.92,17.16-8.51
	c36.04-16.02,72.11-31.96,108.11-48.07c8.63-3.86,17.52-4.65,26.71-3.49c9.11,1.15,17.68,4.13,26.06,7.82
	c25.42,11.21,50.86,22.37,76.3,33.55c13.16,5.78,26.25,11.72,39.49,17.3c11.83,4.99,18.11,14.17,20.86,26.23
	c0.75,3.28,1.09,6.62,0.99,10c-0.35,11.99-0.57,23.98-1.1,35.96c-0.3,6.71-1.52,13.35-2.98,19.89c-2.18,9.77-2.61,19.61-2.29,29.55
	c0.33,10.23,0.5,20.46-0.06,30.69c-0.04,0.8-0.14,1.6-0.12,2.39c0.06,2.62-0.99,4.6-3.19,6.04c-2.67,1.75-5.24,3.67-7.93,5.39
	c-18.15,11.66-36.64,22.76-55.09,33.94c-21.04,12.75-42.09,25.49-63.16,38.2c-3.83,2.31-7.72,4.51-11.63,6.7
	c-5.17,2.89-10.19,5.99-14.88,9.61c-0.63,0.49-1.3,0.92-1.95,1.4c-3.44,2.53-7,2.84-10.73,0.67c-1.52-0.88-3.08-1.7-4.58-2.6
	c-26.68-16.08-53.39-32.12-80.04-48.26c-20.91-12.67-41.74-25.45-62.59-38.22c-3.4-2.09-6.65-4.43-10.01-6.58
	c-2.5-1.6-3.71-3.77-3.68-6.79C58.12,247.13,58.07,238.98,58.07,230.82z"/>
<path class="st0" d="M965.17,304.68c0-42.55,0-85.11-0.01-127.66c0-1.76,0.02-3.53-0.21-5.27c-0.76-5.72-3.4-12-12.42-14
	c-1.9-0.42-3.78-0.62-5.7-0.63c-3.84-0.03-7.68-0.02-11.51-0.02c-15.51,0-31.02,0.01-46.54-0.01c-3.05,0-6.08,0.17-9.01,1.1
	c-4.88,1.56-8.25,4.66-9.93,9.6c-0.74,2.16-1.04,4.37-1.06,6.6c-0.07,9.28-0.07,18.56-0.07,27.83c0,1.73,0.29,2.04,1.9,2.04
	c8.96,0.03,17.91,0.03,26.87,0c2.06-0.01,2.24-0.2,2.26-2.18c0.04-5.6,0-11.2,0.03-16.8c0.01-2.29,0.21-2.51,2.42-2.52
	c9.28-0.03,18.55-0.03,27.83,0c2.46,0.01,2.52,0.09,2.52,2.87c0.02,8.96,0.02,17.92,0.01,26.88c-0.01,5.78,0.52,5.06-5.17,5.07
	c-13.43,0.03-26.87,0.02-40.3,0c-3.05-0.01-6.08,0.16-9.01,1.08c-5.08,1.59-8.5,4.82-10.15,9.97c-0.95,2.96-1,5.98-1,9.01
	c-0.02,17.44-0.02,34.87,0,52.31c0,1.92,0.03,3.85,0.27,5.75c0.9,7.1,5.04,11.57,11.96,13.27c4.44,1.09,8.9,0.82,13.36,0.43
	c10.03-0.89,19.97-2.51,29.92-4.06c3.11-0.48,6.21-1.33,9.3-1.21c0.91,1.14,0.54,2.31,0.62,3.4c0.07,0.98,0.6,1.4,1.5,1.44
	c0.96,0.04,1.92,0.05,2.88,0.05c8,0,15.99,0.01,23.99,0C965.49,309,965.17,309.4,965.17,304.68z M932.55,279.34
	c0,2.04-0.31,2.39-2.06,2.46c-9.43,0.36-18.85,0.71-28.28,1.02c-2.18,0.07-2.41-0.19-2.42-2.48c-0.03-6.24-0.01-12.48-0.01-18.71
	c0-5.28,0-10.56,0-15.83c0-1.12-0.02-2.24,0.04-3.36c0.05-0.9,0.53-1.46,1.48-1.53c0.32-0.02,0.64-0.05,0.96-0.05
	c9.27,0,18.55-0.02,27.82,0.01c2.2,0.01,2.48,0.28,2.49,2.49C932.58,255.35,932.58,267.34,932.55,279.34z"/>
<path class="st0" d="M1203.84,259.93c-0.07-0.7-0.49-1.14-1.2-1.24c-0.47-0.07-0.95-0.11-1.43-0.11c-9.28,0-18.55-0.02-27.83,0.01
	c-2.19,0.01-2.34,0.18-2.35,2.57c-0.04,5.6-0.01,11.2-0.02,16.8c0,1.44-0.01,2.88-0.07,4.32c-0.04,0.93-0.59,1.48-1.51,1.5
	c-1.92,0.05-3.84,0.04-5.76,0.04c-7.52,0-15.03,0.02-22.55-0.02c-2.19-0.01-2.4-0.24-2.41-2.54c-0.04-5.6-0.01-11.2-0.01-16.8
	c0-7.04-0.01-14.08,0.02-21.12c0.01-1.65,0.35-2.01,1.93-2.04c3.36-0.05,6.72-0.03,10.07-0.03c13.43,0,26.87-0.03,40.3,0.03
	c2.21,0.01,3.99-0.4,5.51-2.17c1.66-1.93,3.54-3.69,5.41-5.44c1.35-1.27,2.01-2.63,2-4.59c-0.08-17.92-0.06-35.83-0.05-53.75
	c0-2.1-0.34-4.14-0.84-6.16c-1.44-5.79-5.06-9.47-10.79-11.09c-2.01-0.57-4.04-0.95-6.14-0.95c-20.95,0.01-41.9-0.01-62.85,0.04
	c-1.58,0-3.18,0.3-4.73,0.66c-7.6,1.78-11.79,6.6-12.5,14.4c-0.2,2.23-0.2,4.47-0.2,6.71c-0.01,18.08-0.01,36.15-0.01,54.23
	c0,18.08-0.01,36.15,0.01,54.23c0,2.4,0,4.81,0.26,7.19c0.8,7.11,4.79,11.63,11.66,13.61c2.51,0.72,5.05,0.79,7.6,0.79
	c19.67,0.02,39.34,0.02,59.01,0c1.76,0,3.53-0.05,5.26-0.31c7.54-1.12,12.06-5.37,13.6-12.83c0.35-1.71,0.59-3.48,0.6-5.22
	c0.06-9.6,0.03-19.2,0.03-28.8C1203.9,261.2,1203.9,260.56,1203.84,259.93z M1138.73,184.53c0.01-1.9,0.32-2.19,2.29-2.2
	c9.27-0.03,18.53-0.02,27.8,0c1.62,0,2.16,0.45,2.17,1.87c0.03,10.87,0.04,21.73,0.01,32.6c0,1.53-0.42,1.9-2.1,1.9
	c-9.42,0.03-18.85,0.03-28.27,0c-1.55,0-1.88-0.38-1.89-2.06c-0.03-5.43-0.01-10.87-0.01-16.3
	C1138.71,195.08,1138.69,189.8,1138.73,184.53z"/>
<path class="st3" d="M238.58,58.43c2.45,0.13,4.62,1.22,6.8,2.16c11.88,5.13,23.75,10.3,35.6,15.5
	c28.09,12.33,56.1,24.85,84.3,36.91c8.45,3.61,12.66,9.75,14.4,18.26c1.1,5.38,1.27,10.83,0.68,16.24
	c-0.64,5.91-0.85,11.79-0.45,17.71c0.03,0.47-0.1,0.95-0.16,1.42c-1.11,7.62-4.78,11.01-12.31,11.32
	c-7.79,0.31-15.52-1.71-23.4-0.07c-9.11,1.9-17,5.44-22.55,13.21c-0.74,1.04-1.53,2.05-2.33,3.05
	c-9.08,11.33-16.08,13.45-29.81,9.01c-2.13-0.69-4.3-1.27-6.4-2.03c-11-4-19.99-0.06-28.17,7.04c-7.21,6.25-12.34,14.21-17.72,21.95
	c-1.74,2.5-3.42,5.03-5.75,7.03c-4.68,4.03-9.59,4.05-14.23-0.04c-4.29-3.78-6.8-8.84-9.49-13.74c-2.62-4.77-5.26-9.52-8.46-13.93
	c-7.7-10.62-16.97-13.56-29.38-9.56c-4.29,1.38-8.23,3.49-12.3,5.35c-4.23,1.94-8.62,3.68-13.38,3.09
	c-6.95-0.86-11.63-4.88-14.38-11.24c-1.52-3.52-3-7.06-5.43-10.1c-6.41-8.02-15.5-10.72-25.31-7.45c-3.03,1.01-5.91,2.46-8.98,3.35
	c-7.04,2.04-11.79-0.13-14.87-6.77c-1.64-3.54-2.23-7.31-2.24-11.2c-0.01-7.99,0.26-16-0.07-23.98
	c-0.38-9.26,3.95-15.55,11.51-20.03c6.75-4,13.91-7.18,21.09-10.31c36.78-15.99,73-33.25,110.11-48.5
	c3.55-1.46,7.19-2.66,10.85-3.83C230.47,56.96,234.51,58.38,238.58,58.43z"/>
<path class="st4" d="M373.8,243.54c0.3,2.87,0.85,5.94-0.21,8.53c-1.03,2.52-4.16,3.29-6.44,4.7
	c-44.61,27.5-89.53,54.51-134.46,81.49c-2.47,1.48-4.97,2.9-7.39,4.45c-1.55,0.99-2.95,1.01-4.43-0.06
	c-0.65-0.46-1.37-0.82-2.05-1.23c-43.26-26.05-86.51-52.09-129.76-78.14c-4.65-2.8-9.25-5.7-13.95-8.42
	c-2.44-1.42-3.57-3.36-3.86-6.16c-0.97-9.51-0.27-18.87,2.53-27.98c3.45-11.22,10.82-18.61,22.31-21.67
	c1.88-0.5,3.77-0.66,5.69-0.63c2.69,0.04,4.96,1.04,6.88,2.92c2.42,2.38,4.28,5.16,5.89,8.12c1.76,3.22,3.45,6.49,5.31,9.66
	c1.95,3.32,4.28,6.37,7.11,9c2.96,2.76,6.29,4.84,10.24,5.98c5.78,1.68,11.09,0.76,15.94-2.67c2.08-1.47,3.97-3.22,5.88-4.91
	c1.68-1.48,3.24-3.09,4.91-4.57c2.16-1.91,4.5-3.59,7.09-4.88c4.65-2.32,8.94-1.79,12.86,1.68c2.67,2.36,4.79,5.17,6.48,8.26
	c4.66,8.56,9.23,17.17,13.82,25.77c1.05,1.97,1.99,4.01,3.11,5.94c3.76,6.49,9.3,9.92,16.92,9.71c0.63-0.02,1.27,0.08,1.91,0.13
	c-2.65,3.76-2.21,8.08-2.21,12.32c0.01,15.01-0.02,30.03,0.01,45.04c0.01,5.29,0.31,5.46,4.88,2.72
	c45.61-27.34,91.18-54.73,136.81-82.04C368.1,245.11,370.34,242.58,373.8,243.54z"/>
<path class="st5" d="M373.8,243.54c-7.39,4.42-14.79,8.82-22.18,13.25c-8.89,5.33-17.77,10.68-26.65,16.03
	c-8.88,5.34-17.76,10.69-26.65,16.03c-8.61,5.17-17.24,10.33-25.85,15.5c-9.02,5.42-18.04,10.85-27.06,16.27
	c-6.7,4.03-13.39,8.06-20.09,12.07c-0.41,0.24-0.86,0.43-1.32,0.54c-0.69,0.18-1.32-0.05-1.49-0.77c-0.17-0.77-0.21-1.58-0.21-2.37
	c-0.01-18.86-0.01-37.73,0-56.59c0-0.48,0.03-0.96,0.02-1.44c-0.03-1.49,0.59-2.39,2.14-2.67c0.59-0.11,1.11-0.56,1.67-0.85
	c10.01-1.93,16.8-8.07,21.69-16.66c1.5-2.64,2.92-5.32,4.28-8.04c2.64-5.3,5.52-10.45,8.58-15.52c1.24-2.06,2.51-4.09,4.24-5.78
	c5.03-4.94,11.11-6.78,18.01-5.87c5.42,0.72,10.63,2.25,15.45,4.88c8.07,4.4,11.34,11.37,9.6,20.46c-0.51,2.66-1.25,5.28-1.97,7.9
	c-0.77,2.78-1.43,5.58-1.59,8.46c-0.21,4,0.68,7.62,3.77,10.44c4.01,3.67,8.95,2.89,11.63-1.88c0.96-1.7,1.48-3.55,1.44-5.51
	c-0.05-2.71-0.08-5.44-0.33-8.14c-0.34-3.82-0.93-7.61-1.3-11.43c-1.87-19.53,5.54-34.55,21.92-45.26
	c6.56-4.29,12.92-3.88,19.25,0.35c5.55,3.71,9.11,8.86,10.9,15.27c0.6,2.15,1.24,4.29,1.81,6.45c0.2,0.76,0.4,1.56,0.4,2.34
	C373.9,228.52,373.85,236.03,373.8,243.54z"/>
<path class="st6" d="M238.58,58.43c-0.64,0.54-1.44,0.92-2.21,0.65c-3.59-1.21-6.93,0.06-10.27,0.99
	c-6.17,1.72-11.99,4.4-17.93,6.73c-8.78,3.44-17.35,7.33-25.87,11.39c-6.91,3.29-14.04,6.15-21.05,9.24
	c-6.43,2.84-12.83,5.74-19.25,8.59c-8.02,3.57-16.11,7.01-24.08,10.69c-10.15,4.69-20.53,8.9-30.42,14.14
	c-3.13,1.66-5.92,3.72-8.46,6.21c-3.04,2.99-4.49,6.58-4.52,10.74c-0.06,9.76-0.13,19.52,0.06,29.27c0.09,4.7,1.37,9.14,4.74,12.73
	c1.52,1.62,3.24,2.39,5.49,2.38c2.64,0,5.02-0.8,7.4-1.76c3.25-1.31,6.42-2.81,9.89-3.56c7.43-1.6,13.94,0.43,19.67,5.08
	c3.91,3.17,6.65,7.31,8.37,12.08c0.76,2.12,1.76,4.1,3.01,5.98c3.68,5.54,9.57,7.79,16.14,6.34c3.15-0.7,6.13-1.76,8.98-3.24
	c3.83-1.99,7.74-3.76,11.87-5.12c3.24-1.07,6.47-1.59,9.87-1.54c6.04,0.1,11.14,2.25,15.54,6.38c3.67,3.44,6.4,7.54,8.91,11.82
	c2.75,4.68,5.38,9.43,8.08,14.14c1.6,2.78,3.46,5.37,5.88,7.52c3.79,3.35,7.8,3.36,11.59-0.06c1.54-1.39,2.9-2.93,4.09-4.68
	c3.69-5.4,7.28-10.9,11.37-16c4.7-5.86,9.86-11.31,16.85-14.67c3.21-1.55,6.59-2.42,10-3.23c1.57-0.37,3.15-0.11,4.74,0.28
	c4.34,1.07,8.72,2.05,12.88,3.7c3.32,1.32,6.82,1.97,10.25,2.2c4.37,0.29,8.46-1.29,11.79-4.38c3.18-2.94,6.12-6.13,8.48-9.73
	c3.6-5.48,8.78-8.8,14.64-11.14c6.77-2.7,13.93-3.65,21.13-3.03c3.65,0.31,7.29,0.66,10.95,0.88c5.66,0.34,8.95-2.65,11.21-7.33
	c0.41-0.85,0.52-1.86,1.36-2.48c0,0,0,0.04,0,0.04c0.61,1.33,0.5,2.68,0.09,4.04c-0.06,1.11,0.01,2.25-0.19,3.34
	c-0.75,4.14-3.11,6.88-7.15,8.21c-1.85,0.61-3.73,0.87-5.66,0.91c-3.84,0.08-7.67-0.13-11.48-0.61c-3.97-0.51-7.94-0.61-11.93,0.2
	c-7.74,1.57-13.89,5.53-18.45,11.93c-1.67,2.34-3.1,4.85-4.7,7.24c-1.25,1.85-2.47,3.75-3.93,5.43c-3.59,4.11-8.1,5.57-13.4,4.02
	c-2.75-0.81-5.46-1.81-8.14-2.82c-5.74-2.16-11.68-3.2-17.79-3.51c-5.66-0.29-10.73,1.34-15.46,4.28c-3.7,2.3-6.87,5.22-9.69,8.52
	c-4.7,5.49-8.6,11.53-12.14,17.81c-1.65,2.93-3.28,5.87-5.39,8.49c-2.04,2.54-4.45,4.54-7.66,5.51c-3.55,1.08-6.68,0.38-9.33-2.09
	c-1.39-1.29-2.6-2.83-3.67-4.41c-5.9-8.75-11.7-17.56-16.99-26.7c-1.36-2.35-2.79-4.69-4.48-6.79c-4.55-5.67-10.45-7.57-17.54-5.88
	c-3.15,0.75-6.07,2-8.84,3.61c-2.77,1.6-5.46,3.32-8.2,4.97c-3.16,1.9-6.4,3.58-9.98,4.61c-1.71,0.49-3.43,0.72-5.19,0.82
	c-4.36,0.25-7.74-1.55-10.36-4.94c-1.78-2.3-3-4.9-4.11-7.56c-1.47-3.54-2.95-7.08-4.89-10.41c-1.29-2.21-2.63-4.4-4.39-6.28
	c-4.29-4.57-9.47-6.27-15.65-4.95c-3.16,0.68-6.09,1.92-8.99,3.26c-8.28,3.83-10.23,4.26-20.2,0.69c-6.07-2.17-6.06-2.24-6.06-8.85
	c0-13.12,0.04-26.23,0.05-39.35c0-1.6,0.13-3.22-0.1-4.79c-0.44-3.1,0.68-5.65,2.46-8.02c2.04-2.71,4.55-4.93,7.23-6.96
	c5.64-4.26,11.82-7.62,18.24-10.51c13.41-6.03,26.84-12.01,40.27-17.98c23.8-10.58,47.68-20.99,71.37-31.8
	c8.29-3.78,16.57-4.32,25.24-2.54C234.61,57.19,236.58,57.87,238.58,58.43z"/>
<path class="st3" d="M379.84,170.71c-0.32-1.34-0.34-2.68-0.09-4.04C380.48,168,380.46,169.35,379.84,170.71z"/>
<path class="st7" d="M161.62,127.29c-0.01-0.64,0-1.27-0.04-1.91c-0.18-3.28,1.4-5.44,4.27-6.81c0.86-0.41,1.71-0.87,2.56-1.29
	c17.02-8.37,34.04-16.73,51.06-25.1c0.29-0.14,0.6-0.24,0.86-0.41c3.43-2.22,6.74-2.06,10.32-0.05c5.28,2.96,10.77,5.55,16.16,8.3
	c11.64,5.94,23.28,11.89,34.92,17.84c0.85,0.44,1.68,0.93,2.56,1.3c3.64,1.52,5.53,4.17,5.35,8.18c1.19,4.05-2.04,5.33-4.54,6.76
	c-7.9,4.52-16.36,7.92-24.58,11.8c-9.51,4.5-19.13,8.8-28.54,13.5c-5.3,2.65-10.12,2.77-15.47,0.06
	c-16.35-8.31-32.49-17.05-48.95-25.15C164.76,132.92,161.04,131.78,161.62,127.29z"/>
<path class="st6" d="M161.62,127.29c1.02,2.34,2.94,3.67,5.13,4.8c17.49,8.95,34.99,17.9,52.42,26.96c3.3,1.72,6.25,1.6,9.55,0.03
	c12.69-6.06,25.44-11.96,38.18-17.91c5.79-2.71,11.56-5.45,17.38-8.08c2.63-1.19,4.57-2.89,5.36-5.74c0.79,0.24,1.4,0.61,1.67,1.5
	c1.69,5.48-0.84,11.11-5.75,13.88c-2.92,1.65-5.98,3.06-9.02,4.46c-5.8,2.67-11.65,5.23-17.45,7.89
	c-9.29,4.27-18.54,8.61-27.82,12.87c-1.74,0.8-3.53,1.54-5.47,1.66c-3.06,0.19-5.93-0.14-8.8-1.6
	c-16.67-8.48-33.42-16.8-50.14-25.18c-0.86-0.43-1.73-0.83-2.54-1.34c-2.72-1.72-4.39-4.34-5.04-7.33
	c-0.63-2.86-0.89-5.93,0.85-8.93C160.73,126.08,161.17,126.68,161.62,127.29z"/>
<path class="st8" d="M224.25,145.56c-0.61-0.13-1.29-0.13-1.83-0.41c-12.33-6.31-24.64-12.64-36.94-18.99
	c-0.38-0.2-0.63-0.66-1.09-1.17c0.76-0.47,1.38-0.94,2.06-1.27c12.29-6.03,24.58-12.05,36.87-18.06c0.28-0.14,0.6-0.18,0.91-0.27
	c1.97,1.64,1.87,3.95,1.89,6.17c0.05,9.26,0.03,18.51,0.02,27.77C226.14,141.6,225.93,143.8,224.25,145.56z"/>
<path class="st9" d="M224.25,145.56c-0.01-13.39-0.01-26.79-0.02-40.18c0.67-0.55,1.36-0.7,2.19-0.31c4.32,2.03,7.84,4.81,9.5,9.52
	c0.64,1.79,1.38,3.57,2.28,5.25c2.81,5.2,8.02,7.37,13.72,5.8c1.38-0.38,2.75-0.8,4.09-1.31c3.57-1.35,6.82-0.47,10.07,1.15
	c-0.33,1.5-1.55,1.61-2.47,2.04c-11.09,5.21-22.17,10.43-33.29,15.55C228.35,143.98,226.64,145.64,224.25,145.56z"/>
</svg>
